<svg id="account_balance_wallet_black_24dp_2_" data-name="account_balance_wallet_black_24dp (2)" xmlns="http://www.w3.org/2000/svg" width="34.379" height="34.379" viewBox="0 0 34.379 34.379">
  <path id="Path_21016" data-name="Path 21016" d="M0,0H34.379V34.379H0Z" fill="none"/>
  <path id="Path_21017" data-name="Path 21017" d="M28.784,9.131V5.865A2.873,2.873,0,0,0,25.919,3H5.865A2.864,2.864,0,0,0,3,5.865V25.919a2.864,2.864,0,0,0,2.865,2.865H25.919a2.873,2.873,0,0,0,2.865-2.865V22.653a2.866,2.866,0,0,0,1.432-2.464V11.595A2.866,2.866,0,0,0,28.784,9.131Zm-1.432,2.464v8.595H17.325V11.595ZM5.865,25.919V5.865H25.919V8.73H17.325a2.873,2.873,0,0,0-2.865,2.865v8.595a2.873,2.873,0,0,0,2.865,2.865h8.595v2.865Z" transform="translate(1.297 1.297)" fill="#122ba8"/>
  <circle id="Ellipse_77" data-name="Ellipse 77" cx="2.149" cy="2.149" r="2.149" transform="translate(20.771 15.041)" fill="#122ba8"/>
</svg>
