<svg xmlns="http://www.w3.org/2000/svg" width="18.331" height="18.295" viewBox="0 0 18.331 18.295">
  <path id="Path_20748" data-name="Path 20748" d="M-623.107-973.379l-.23-.355a8.591,8.591,0,0,1-1.376-4.032,1.221,1.221,0,0,1,.854-1.327c.368-.136.733-.279,1.107-.4a.283.283,0,0,0,.224-.328c-.008-1.017,0-2.035,0-3.052s.42-1.435,1.42-1.456c.052,0,.1-.008.175-.014v-2.008c-.373,0-.735,0-1.1,0-.316,0-.492-.148-.49-.4s.184-.4.5-.4q1.607,0,3.213,0h.319c0-.51-.013-.99,0-1.469a1.391,1.391,0,0,1,1.836-1.276,1.355,1.355,0,0,1,.961,1.253c.015.488,0,.977,0,1.492h3.431a1.938,1.938,0,0,1,.214,0,.4.4,0,0,1,.386.4.386.386,0,0,1-.414.395c-.383.007-.766,0-1.171,0v2.024c.123,0,.244,0,.364,0a1.184,1.184,0,0,1,1.221,1.191c.021.678.007,1.357.007,2.035,0,.437.007.875,0,1.312a.257.257,0,0,0,.2.29q.605.213,1.2.451a1.182,1.182,0,0,1,.784,1.287,8.669,8.669,0,0,1-1.52,4.257c-.025.036-.047.074-.09.144.089,0,.153,0,.217,0A1.487,1.487,0,0,1-609.8-973a.757.757,0,0,0,1.1.056.4.4,0,0,1,.572.046c.14.172.11.351-.09.533a1.5,1.5,0,0,1-2.044.039.721.721,0,0,0-1.131-.008,1.52,1.52,0,0,1-2.05-.008.711.711,0,0,0-1.051-.009,1.509,1.509,0,0,1-2.108-.007.706.706,0,0,0-1.031,0,1.5,1.5,0,0,1-2.085.017.76.76,0,0,0-1.084,0,1.511,1.511,0,0,1-2.027,0,.759.759,0,0,0-1.141,0,1.5,1.5,0,0,1-2,0,.4.4,0,0,1-.088-.588.392.392,0,0,1,.591-.031.731.731,0,0,0,1.038-.036A1.637,1.637,0,0,1-623.107-973.379Zm1.6.591c.08-.057.14-.094.194-.139a1.5,1.5,0,0,1,2.145,0,.749.749,0,0,0,1.042-.04,1.513,1.513,0,0,1,2.049-.007.728.728,0,0,0,1.112-.011,1.491,1.491,0,0,1,2.023-.017c.08.067.167.125.26.193a7.643,7.643,0,0,0,2.388-4.911c.048-.474.009-.518-.443-.682q-2.841-1.025-5.684-2.047c-.078-.028-.159-.049-.272-.083v.36q0,2.437,0,4.874a1.529,1.529,0,0,1-.021.319.359.359,0,0,1-.383.3.358.358,0,0,1-.382-.305,1.546,1.546,0,0,1-.02-.319q0-2.451,0-4.9v-.341l-1.1.4-4.9,1.775c-.374.136-.438.224-.4.611a7.917,7.917,0,0,0,.114.82A7.693,7.693,0,0,0-621.5-972.788Zm-.222-7.078c.117-.039.2-.065.281-.094,1.324-.477,2.651-.95,3.972-1.437a1.087,1.087,0,0,1,.8.006c1.3.482,2.612.951,3.919,1.424.086.031.174.058.286.1,0-1.113.006-2.183,0-3.253,0-.286-.169-.4-.521-.4h-8.195c-.414,0-.536.123-.538.547,0,.794,0,1.589,0,2.383Zm7.626-4.475v-1.993h-6v1.993Zm-2.406-2.821c0-.517.016-1.014-.006-1.509a.542.542,0,0,0-.552-.482.543.543,0,0,0-.608.446c-.03.511-.009,1.024-.009,1.546Z" transform="translate(626.265 990.076)" fill="#122ba8" stroke="#122ba8" stroke-width="0.2"/>
</svg>
