<svg xmlns="http://www.w3.org/2000/svg" width="27.833" height="29.032" viewBox="0 0 27.833 29.032">
  <path id="Path_21012" data-name="Path 21012" d="M15.442,29.65H5.765A2.764,2.764,0,0,1,3,26.885L3.014,7.53A2.752,2.752,0,0,1,5.765,4.765H7.147V2H9.912V4.765h11.06V2h2.765V4.765H25.12A2.773,2.773,0,0,1,27.885,7.53v8.295H25.12V13.06H5.765V26.885h9.677Zm14-6.926.982-.982a1.377,1.377,0,0,0,0-1.949l-.982-.982a1.377,1.377,0,0,0-1.949,0l-.982.982Zm-.982.982-7.327,7.327H18.207V28.1l7.327-7.327Z" transform="translate(-3 -2)" fill="#122ba8"/>
</svg>
