<svg id="price_change_black_24dp_1_" data-name="price_change_black_24dp (1)" xmlns="http://www.w3.org/2000/svg" width="33.002" height="33.002" viewBox="0 0 33.002 33.002">
  <g id="Group_7853" data-name="Group 7853">
    <path id="Path_21014" data-name="Path 21014" d="M0,0H33V33H0Z" fill="none"/>
  </g>
  <g id="Group_7855" data-name="Group 7855" transform="translate(2.75 5.5)">
    <g id="Group_7854" data-name="Group 7854">
      <path id="Path_21015" data-name="Path 21015" d="M10.251,21.876H13V20.5h1.375a1.379,1.379,0,0,0,1.375-1.375V15a1.379,1.379,0,0,0-1.375-1.375H10.251V12.251h5.5V9.5H13V8.125h-2.75V9.5H8.876A1.379,1.379,0,0,0,7.5,10.876V15a1.379,1.379,0,0,0,1.375,1.375H13v1.375H7.5V20.5h2.75ZM26.752,4h-22A2.729,2.729,0,0,0,2.014,6.75L2,23.251A2.741,2.741,0,0,0,4.75,26h22a2.741,2.741,0,0,0,2.75-2.75V6.75A2.741,2.741,0,0,0,26.752,4Zm0,19.251h-22V6.75h22Zm-8.251-11,2.75-2.75L24,12.251m0,5.844-2.75,2.75-2.75-2.75" transform="translate(-2 -4)" fill="#122ba8"/>
    </g>
  </g>
</svg>
