<svg xmlns="http://www.w3.org/2000/svg" width="34.924" height="19.342" viewBox="0 0 34.924 19.342">
  <g id="Group_6810" data-name="Group 6810" transform="translate(1149.4 303.439)">
    <path id="Path_20740" data-name="Path 20740" d="M-1140.483-298.522c-.693,0-1.3,0-1.913,0-.49,0-.766-.219-.775-.6-.009-.4.274-.628.785-.629q2.263,0,4.525,0a1.381,1.381,0,0,0,1.4-1.964,4.624,4.624,0,0,0-.355-.718.611.611,0,0,1,.522-1c.652-.014,1.3-.018,1.955.007a1.029,1.029,0,0,1,.516.206c1.51,1.073,3.012,2.159,4.52,3.235a.956.956,0,0,0,.437.207,11,11,0,0,1,4.842,1.685c.92.547,1.776,1.2,2.67,1.792a1.083,1.083,0,0,0,.549.192c1.828.015,3.656.013,5.484.008.323,0,.616.027.78.358s0,.586-.2.834a14.059,14.059,0,0,1-4.891,3.867l-.318.158c.169.013.259.026.349.026q2.013,0,4.026,0c.484,0,.77.224.779.6.009.392-.283.626-.791.626h-33.016c-.615,0-.838-.245-.785-.849a5.879,5.879,0,0,1,4.961-5.348,17.025,17.025,0,0,1,2.091-.236.509.509,0,0,0,.46-.255C-1141.441-297.03-1140.983-297.736-1140.483-298.522Zm24.062,3.681h-14.973c-3.629,0-7.259-.005-10.888.005a7.18,7.18,0,0,0-3.619.836,4.5,4.5,0,0,0-2.211,3.146h.382c7.259,0,14.517.012,21.776-.013a14.775,14.775,0,0,0,2.888-.309A13.036,13.036,0,0,0-1116.421-294.841Zm-6.844-1.246a1.87,1.87,0,0,0-1.591-.6,10.038,10.038,0,0,1-1.149.008c-.959,0-1.917,0-2.876,0a.584.584,0,0,1-.617-.469.54.54,0,0,1,.273-.654,1.1,1.1,0,0,1,.477-.1c.691-.01,1.382,0,2.073,0l.021-.161a13.57,13.57,0,0,0-2.307-.426c-3.271-.049-6.543-.024-9.815-.02a.4.4,0,0,0-.294.111c-.5.753-.976,1.516-1.486,2.318Zm-12.2-3.688h4.28c-.128-.1-.2-.167-.282-.225-.867-.632-1.751-1.243-2.6-1.9a1.4,1.4,0,0,0-1.21-.268A2.7,2.7,0,0,1-1135.463-299.775Z" fill="#acacac"/>
    <path id="Path_20741" data-name="Path 20741" d="M-1092.607-102.483h-13c-.6,0-.943-.393-.747-.848a.683.683,0,0,1,.725-.384q4.046.007,8.091,0l17.793,0h.115c.542,0,.842.226.834.622s-.3.607-.851.607h-12.962Z" transform="translate(-39.688 -184.378)" fill="#acacac"/>
    <path id="Path_20742" data-name="Path 20742" d="M-1022.464-66.535q-3.566,0-7.132,0a1.257,1.257,0,0,1-.45-.057.555.555,0,0,1-.364-.679.589.589,0,0,1,.64-.49q1.553,0,3.106,0h11.312c.089,0,.179,0,.268,0a.621.621,0,0,1,.6.62.61.61,0,0,1-.621.6c-.524.014-1.048.006-1.572.007Z" transform="translate(-109.832 -217.564)" fill="#acacac"/>
    <path id="Path_20743" data-name="Path 20743" d="M-1075.546-178.352c-.482,0-.762-.219-.768-.6s.277-.623.75-.625.767.23.775.607S-1075.079-178.354-1075.546-178.352Z" transform="translate(-67.47 -114.341)" fill="#acacac"/>
    <path id="Path_20744" data-name="Path 20744" d="M-1043.614-178.318c-.476,0-.758-.23-.756-.616s.282-.61.761-.61.763.237.762.616S-1043.142-178.317-1043.614-178.318Z" transform="translate(-96.959 -114.375)" fill="#acacac"/>
    <path id="Path_20745" data-name="Path 20745" d="M-1011.7-178.346c-.473,0-.759-.238-.751-.622s.293-.609.769-.607.762.245.756.624S-1011.22-178.345-1011.7-178.346Z" transform="translate(-126.429 -114.347)" fill="#acacac"/>
    <path id="Path_20747" data-name="Path 20747" d="M-1010.8-230.274c-.971,0-1.942,0-2.914,0-.453,0-.724-.231-.731-.6s.28-.623.752-.623c1.943,0,3.885,0,5.827,0a.7.7,0,0,1,.71.349.612.612,0,0,1-.615.878C-1008.779-230.267-1009.789-230.274-1010.8-230.274Z" transform="translate(-124.586 -66.408)" fill="#acacac"/>
  </g>
</svg>
