<svg id="dns_black_24dp" xmlns="http://www.w3.org/2000/svg" width="24" height="24" viewBox="0 0 24 24">
  <path id="Path_20955" data-name="Path 20955" d="M0,0H24V24H0Z" fill="none"/>
  <path id="Path_20956" data-name="Path 20956" d="M19,15v4H5V15H19m1-2H4a1,1,0,0,0-1,1v6a1,1,0,0,0,1,1H20a1,1,0,0,0,1-1V14A1,1,0,0,0,20,13ZM7,18.5A1.5,1.5,0,1,1,8.5,17,1.5,1.5,0,0,1,7,18.5ZM19,5V9H5V5H19m1-2H4A1,1,0,0,0,3,4v6a1,1,0,0,0,1,1H20a1,1,0,0,0,1-1V4A1,1,0,0,0,20,3ZM7,8.5A1.5,1.5,0,1,1,8.5,7,1.5,1.5,0,0,1,7,8.5Z" fill="#acacac"/>
</svg>
