<svg xmlns="http://www.w3.org/2000/svg" width="18.888" height="17.723" viewBox="0 0 18.888 17.723">
  <g id="Group_6813" data-name="Group 6813" transform="translate(509.082 2241.805)">
    <path id="Path_20749" data-name="Path 20749" d="M-507.188-2240.485c0-.3,0-.56,0-.821s.1-.344.345-.346q.806-.005,1.613,0c.249,0,.343.1.347.342,0,.267,0,.533,0,.813H-494.4c0-.235,0-.47,0-.7,0-.391.062-.451.458-.451.494,0,.988,0,1.482,0,.271,0,.365.094.369.368,0,.253,0,.507,0,.788.09,0,.166.011.243.012a1.439,1.439,0,0,1,1.5,1.514q0,2.68,0,5.36,0,3.922,0,7.844a1.43,1.43,0,0,1-1.012,1.462,1.709,1.709,0,0,1-.492.071q-7.8.005-15.6,0a1.433,1.433,0,0,1-1.478-1.472q0-6.656,0-13.313a1.431,1.431,0,0,1,1.456-1.469Zm-1.182,4.057c0,.111,0,.2,0,.283q0,1.417,0,2.833,0,3.759,0,7.517a.9.9,0,0,0,.995,1h15.407a.917.917,0,0,0,1.056-1.048q0-5.164,0-10.327c0-.084-.009-.168-.014-.26Zm13.971-3.482h-10.482c0,.448,0,.882,0,1.316,0,.34-.073.414-.406.414H-506.7c-.431,0-.484-.053-.485-.49,0-.411,0-.823,0-1.229a.92.92,0,0,0-1.182.966c0,.566.008,1.133-.005,1.7,0,.2.065.237.249.237q8.476-.007,16.951,0h.242c.008-.082.019-.138.019-.195,0-.6.007-1.191,0-1.787a.9.9,0,0,0-1.15-.917c-.006.013-.016.026-.016.039q0,.631-.008,1.263c0,.333-.082.416-.409.416h-1.285c-.615,0-.616,0-.616-.62C-494.4-2239.168-494.4-2239.537-494.4-2239.91Zm-11.061,1.161v-2.341c-.332,0-.649.008-.966,0-.169-.006-.206.059-.2.215.008.645,0,1.291,0,1.936,0,.062.011.125.018.193Zm11.647-2.34v2.337h1.154c0-.749,0-1.487-.005-2.226,0-.038-.077-.105-.12-.107C-493.124-2241.093-493.463-2241.089-493.813-2241.089Z" fill="#acacac" stroke="#acacac" stroke-width="0.3"/>
    <path id="Path_20750" data-name="Path 20750" d="M-240.968-2010.49c.057-.352.13-.738.177-1.127a.429.429,0,0,0-.1-.3c-.236-.266-.5-.506-.735-.773a.407.407,0,0,1-.1-.322.4.4,0,0,1,.271-.2c.326-.069.658-.111.989-.154a.321.321,0,0,0,.293-.211c.135-.321.291-.632.438-.948.061-.131.142-.27.3-.228a.5.5,0,0,1,.28.225c.168.312.315.637.456.962a.306.306,0,0,0,.278.2c.317.04.635.078.946.146.12.026.283.107.316.2a.456.456,0,0,1-.122.354,9.815,9.815,0,0,1-.7.72.363.363,0,0,0-.115.367c.064.35.128.7.167,1.053a.393.393,0,0,1-.1.32.433.433,0,0,1-.355-.006c-.308-.146-.6-.318-.9-.491a.278.278,0,0,0-.319,0q-.46.269-.934.516C-240.774-2010.062-240.976-2010.189-240.968-2010.49Zm2.412-.462c-.043-.27-.069-.5-.118-.723a.492.492,0,0,1,.158-.526c.174-.154.327-.332.521-.532-.288-.046-.515-.093-.744-.114a.416.416,0,0,1-.376-.279c-.093-.217-.2-.428-.321-.689-.128.27-.24.494-.341.722a.383.383,0,0,1-.332.241c-.241.031-.48.074-.769.119.2.2.353.381.528.539a.488.488,0,0,1,.153.509c-.048.228-.077.459-.122.735.226-.124.41-.209.578-.321a.485.485,0,0,1,.6-.005C-238.969-2011.159-238.777-2011.072-238.556-2010.952Z" transform="translate(-255.552 -217.002)" fill="#acacac" stroke="#acacac" stroke-width="0.3"/>
    <path id="Path_20751" data-name="Path 20751" d="M-436-1881.644h5.62a1.226,1.226,0,0,1,.217.006.264.264,0,0,1,.239.289.256.256,0,0,1-.243.262,1.769,1.769,0,0,1-.218.007h-11.263c-.334,0-.45-.07-.456-.272s.127-.292.46-.292Z" transform="translate(-63.912 -344.314)" fill="#acacac" stroke="#acacac" stroke-width="0.3"/>
    <path id="Path_20752" data-name="Path 20752" d="M-227.558-2091.987c-.363,0-.726.005-1.088,0-.273-.006-.353-.088-.353-.354q0-1.089,0-2.178c0-.247.1-.347.341-.348q1.111,0,2.221,0c.222,0,.326.1.327.317q.009,1.121,0,2.243c0,.224-.1.318-.322.321-.377.006-.755,0-1.133,0Zm-.865-.557h1.2c.519,0,.519,0,.545-.5,0-.007,0-.014,0-.022,0-.4,0-.81,0-1.224h-1.751Z" transform="translate(-267.729 -140.385)" fill="#acacac" stroke="#acacac" stroke-width="0.3"/>
    <path id="Path_20753" data-name="Path 20753" d="M-332.77-2093.4c0,.363,0,.726,0,1.089,0,.243-.107.34-.351.34q-1.077,0-2.155-.006c-.3,0-.389-.088-.39-.391q0-1.067,0-2.134c0-.267.09-.357.351-.358q1.089,0,2.178,0c.271,0,.359.092.361.371,0,.363,0,.726,0,1.089Zm-.577-.881h-1.729v1.723h1.729Z" transform="translate(-165.711 -140.389)" fill="#acacac" stroke="#acacac" stroke-width="0.3"/>
    <path id="Path_20754" data-name="Path 20754" d="M-332.778-2000.313c0,.37,0,.74,0,1.11,0,.256-.1.355-.358.356q-1.088,0-2.176,0c-.255,0-.352-.1-.354-.359q-.007-1.109-.006-2.219a.285.285,0,0,1,.308-.318q1.142-.007,2.284,0c.2,0,.3.123.306.341,0,.363,0,.725,0,1.088Zm-.562.883c0-.552,0-1.087-.007-1.622,0-.042-.1-.117-.149-.119-.275-.012-.551-.006-.827-.006h-.763v1.748Z" transform="translate(-165.706 -229.449)" fill="#acacac" stroke="#acacac" stroke-width="0.3"/>
    <path id="Path_20755" data-name="Path 20755" d="M-439.344-2000.272c0,.37,0,.74,0,1.111,0,.262-.092.353-.357.354q-1.089,0-2.178,0c-.248,0-.346-.1-.347-.343q0-1.111,0-2.221a.286.286,0,0,1,.32-.327q1.121-.008,2.243,0c.233,0,.32.1.321.341,0,.363,0,.726,0,1.089Zm-2.312.882h1.748c0-.553,0-1.089-.007-1.625,0-.042-.1-.115-.151-.118-.239-.012-.479,0-.718,0h-.873Z" transform="translate(-63.794 -229.489)" fill="#acacac" stroke="#acacac" stroke-width="0.3"/>
    <path id="Path_20756" data-name="Path 20756" d="M-440.78-2091.968h-1.131a.277.277,0,0,1-.307-.313q0-1.132,0-2.263a.277.277,0,0,1,.316-.3q1.132,0,2.264,0a.269.269,0,0,1,.3.295q.006,1.143,0,2.285a.278.278,0,0,1-.319.3h-1.132Zm.866-.574v-1.726h-1.729v1.726Z" transform="translate(-63.805 -140.405)" fill="#acacac" stroke="#acacac" stroke-width="0.3"/>
  </g>
</svg>
