<svg id="calendar_today_black_24dp_1_" data-name="calendar_today_black_24dp (1)" xmlns="http://www.w3.org/2000/svg" width="24" height="24" viewBox="0 0 24 24">
  <path id="Path_20951" data-name="Path 20951" d="M0,0H24V24H0Z" fill="none"/>
  <path id="Path_20952" data-name="Path 20952" d="M17.953,2.773h-.886V1H15.294V2.773H6.431V1H4.659V2.773H3.773A1.778,1.778,0,0,0,2,4.545v14.18A1.778,1.778,0,0,0,3.773,20.5h14.18a1.778,1.778,0,0,0,1.773-1.773V4.545A1.778,1.778,0,0,0,17.953,2.773Zm0,15.953H3.773V8.976h14.18Zm0-11.522H3.773V4.545h14.18Z" transform="translate(1.137 1.502)" fill="#acacac"/>
</svg>
