<svg id="mark_chat_unread_black_24dp" xmlns="http://www.w3.org/2000/svg" width="24" height="24" viewBox="0 0 24 24">
  <rect id="Rectangle_3109" data-name="Rectangle 3109" width="24" height="24" fill="none"/>
  <path id="Path_21021" data-name="Path 21021" d="M20.409,6.425v8.3a1.846,1.846,0,0,1-1.841,1.841H5.682L2,20.25V3.682A1.846,1.846,0,0,1,3.841,1.841h9.3a5.033,5.033,0,0,0-.092.92,5.033,5.033,0,0,0,.092.92h-9.3V14.727H18.568V7.272A4.558,4.558,0,0,0,20.409,6.425ZM14.886,2.761A2.761,2.761,0,1,0,17.648,0,2.758,2.758,0,0,0,14.886,2.761Z" transform="translate(0.541 1.155)" fill="#acacac"/>
</svg>
